<mxfile host="Electron" modified="2024-11-25T12:38:15.175Z" agent="Mozilla/5.0 (Macintosh; Intel Mac OS X 10_15_7) AppleWebKit/537.36 (KHTML, like Gecko) draw.io/22.1.2 Chrome/114.0.5735.289 Electron/25.9.4 Safari/537.36" etag="90V4whXN8S77UinFaDCy" version="22.1.2" type="device" pages="4">
  <diagram name="Events" id="QSQXu9lmqYJtY8SG2Jjx">
    <mxGraphModel dx="1217" dy="930" grid="1" gridSize="10" guides="1" tooltips="1" connect="1" arrows="1" fold="1" page="1" pageScale="1" pageWidth="1169" pageHeight="1654" math="0" shadow="0">
      <root>
        <mxCell id="0" />
        <mxCell id="1" parent="0" />
        <mxCell id="1sGQlCswzNVKoqFnoiBK-1" value="System&lt;br&gt;(e.g. Third-Party, Payment service)" style="rounded=0;whiteSpace=wrap;html=1;fillColor=#f8cecc;strokeColor=#b85450;" vertex="1" parent="1">
          <mxGeometry x="15" y="80" width="120" height="60" as="geometry" />
        </mxCell>
        <mxCell id="1sGQlCswzNVKoqFnoiBK-2" value="Actor&lt;br&gt;(e.g. Customers, internal employees)" style="rounded=0;whiteSpace=wrap;html=1;fillColor=#ffff88;strokeColor=#36393d;" vertex="1" parent="1">
          <mxGeometry x="15" y="10" width="120" height="60" as="geometry" />
        </mxCell>
        <mxCell id="1sGQlCswzNVKoqFnoiBK-3" value="Command&lt;br&gt;(e.g. Submits an order)" style="rounded=0;whiteSpace=wrap;html=1;fillColor=#cce5ff;strokeColor=#36393d;" vertex="1" parent="1">
          <mxGeometry x="145" y="10" width="120" height="60" as="geometry" />
        </mxCell>
        <mxCell id="1sGQlCswzNVKoqFnoiBK-4" value="Domain Event&lt;br&gt;(e.g. Order submitted)" style="rounded=0;whiteSpace=wrap;html=1;fillColor=#ffe6cc;strokeColor=#d79b00;" vertex="1" parent="1">
          <mxGeometry x="275" y="10" width="120" height="60" as="geometry" />
        </mxCell>
        <mxCell id="1sGQlCswzNVKoqFnoiBK-5" value="Artefacts&lt;br&gt;(e.g. Order Id, Item Name)" style="rounded=0;whiteSpace=wrap;html=1;fillColor=#d5e8d4;strokeColor=#82b366;" vertex="1" parent="1">
          <mxGeometry x="275" y="80" width="120" height="60" as="geometry" />
        </mxCell>
        <mxCell id="1sGQlCswzNVKoqFnoiBK-6" value="User Interface&lt;br&gt;(e.g. Web app)" style="rounded=0;whiteSpace=wrap;html=1;" vertex="1" parent="1">
          <mxGeometry x="405" y="10" width="120" height="60" as="geometry" />
        </mxCell>
        <mxCell id="1sGQlCswzNVKoqFnoiBK-7" value="Policy&lt;br&gt;(Rules what happened on success or failure, etc.)" style="rounded=0;whiteSpace=wrap;html=1;fillColor=#e1d5e7;strokeColor=#9673a6;" vertex="1" parent="1">
          <mxGeometry x="145" y="80" width="120" height="60" as="geometry" />
        </mxCell>
        <mxCell id="LxWCvpmv3S09ETfs8jSa-2" style="edgeStyle=orthogonalEdgeStyle;rounded=0;orthogonalLoop=1;jettySize=auto;html=1;entryX=0;entryY=0.5;entryDx=0;entryDy=0;" edge="1" parent="1" source="1sGQlCswzNVKoqFnoiBK-9" target="LxWCvpmv3S09ETfs8jSa-1">
          <mxGeometry relative="1" as="geometry" />
        </mxCell>
        <mxCell id="1sGQlCswzNVKoqFnoiBK-9" value="Upload resume" style="rounded=0;whiteSpace=wrap;html=1;fillColor=#cce5ff;strokeColor=#36393d;" vertex="1" parent="1">
          <mxGeometry x="470" y="410" width="120" height="60" as="geometry" />
        </mxCell>
        <mxCell id="-47shXcS-1HyKLamz-Dh-2" style="edgeStyle=orthogonalEdgeStyle;rounded=0;orthogonalLoop=1;jettySize=auto;html=1;entryX=0;entryY=0.5;entryDx=0;entryDy=0;" edge="1" parent="1" source="LxWCvpmv3S09ETfs8jSa-1" target="DDW7LlrJ7NtLlArkNrAU-3">
          <mxGeometry relative="1" as="geometry">
            <mxPoint x="770" y="440" as="targetPoint" />
            <Array as="points">
              <mxPoint x="750" y="490" />
              <mxPoint x="750" y="540" />
            </Array>
          </mxGeometry>
        </mxCell>
        <mxCell id="LxWCvpmv3S09ETfs8jSa-1" value="Resume uploaded" style="rounded=0;whiteSpace=wrap;html=1;fillColor=#ffe6cc;strokeColor=#d79b00;" vertex="1" parent="1">
          <mxGeometry x="620" y="460" width="120" height="60" as="geometry" />
        </mxCell>
        <mxCell id="h68p6T1j22FLT3B7f_oG-5" style="edgeStyle=orthogonalEdgeStyle;rounded=0;orthogonalLoop=1;jettySize=auto;html=1;entryX=0;entryY=0.5;entryDx=0;entryDy=0;" edge="1" parent="1" source="h68p6T1j22FLT3B7f_oG-2" target="h68p6T1j22FLT3B7f_oG-4">
          <mxGeometry relative="1" as="geometry" />
        </mxCell>
        <mxCell id="h68p6T1j22FLT3B7f_oG-2" value="Register to Clearview" style="rounded=0;whiteSpace=wrap;html=1;fillColor=#cce5ff;strokeColor=#36393d;" vertex="1" parent="1">
          <mxGeometry x="100" y="270" width="120" height="60" as="geometry" />
        </mxCell>
        <mxCell id="DDW7LlrJ7NtLlArkNrAU-2" style="edgeStyle=orthogonalEdgeStyle;rounded=0;orthogonalLoop=1;jettySize=auto;html=1;entryX=0;entryY=0.5;entryDx=0;entryDy=0;" edge="1" parent="1" source="h68p6T1j22FLT3B7f_oG-4" target="1sGQlCswzNVKoqFnoiBK-9">
          <mxGeometry relative="1" as="geometry">
            <Array as="points">
              <mxPoint x="400" y="350" />
              <mxPoint x="400" y="440" />
            </Array>
          </mxGeometry>
        </mxCell>
        <mxCell id="vd6nBaBK3zYr2zuKlT-W-9" style="edgeStyle=orthogonalEdgeStyle;rounded=0;orthogonalLoop=1;jettySize=auto;html=1;entryX=0;entryY=0.5;entryDx=0;entryDy=0;" edge="1" parent="1" source="h68p6T1j22FLT3B7f_oG-4" target="vd6nBaBK3zYr2zuKlT-W-1">
          <mxGeometry relative="1" as="geometry">
            <Array as="points">
              <mxPoint x="310" y="700" />
            </Array>
          </mxGeometry>
        </mxCell>
        <mxCell id="vd6nBaBK3zYr2zuKlT-W-18" style="edgeStyle=orthogonalEdgeStyle;rounded=0;orthogonalLoop=1;jettySize=auto;html=1;entryX=0;entryY=0.5;entryDx=0;entryDy=0;" edge="1" parent="1" source="h68p6T1j22FLT3B7f_oG-4" target="vd6nBaBK3zYr2zuKlT-W-16">
          <mxGeometry relative="1" as="geometry">
            <Array as="points">
              <mxPoint x="310" y="182" />
            </Array>
          </mxGeometry>
        </mxCell>
        <mxCell id="h68p6T1j22FLT3B7f_oG-4" value="Candidate registered" style="rounded=0;whiteSpace=wrap;html=1;fillColor=#ffe6cc;strokeColor=#d79b00;" vertex="1" parent="1">
          <mxGeometry x="250" y="320" width="120" height="60" as="geometry" />
        </mxCell>
        <mxCell id="h68p6T1j22FLT3B7f_oG-1" value="Job Candidate" style="rounded=0;whiteSpace=wrap;html=1;fillColor=#ffff88;strokeColor=#36393d;" vertex="1" parent="1">
          <mxGeometry y="320" width="120" height="60" as="geometry" />
        </mxCell>
        <mxCell id="1sGQlCswzNVKoqFnoiBK-8" value="Job Candidate" style="rounded=0;whiteSpace=wrap;html=1;fillColor=#ffff88;strokeColor=#36393d;" vertex="1" parent="1">
          <mxGeometry x="370" y="460" width="120" height="60" as="geometry" />
        </mxCell>
        <mxCell id="DDW7LlrJ7NtLlArkNrAU-6" style="edgeStyle=orthogonalEdgeStyle;rounded=0;orthogonalLoop=1;jettySize=auto;html=1;entryX=0.5;entryY=1;entryDx=0;entryDy=0;" edge="1" parent="1" source="DDW7LlrJ7NtLlArkNrAU-3" target="1sGQlCswzNVKoqFnoiBK-8">
          <mxGeometry relative="1" as="geometry">
            <Array as="points">
              <mxPoint x="830" y="650" />
              <mxPoint x="430" y="650" />
            </Array>
          </mxGeometry>
        </mxCell>
        <mxCell id="DDW7LlrJ7NtLlArkNrAU-3" value="Generated tips received" style="rounded=0;whiteSpace=wrap;html=1;fillColor=#ffe6cc;strokeColor=#d79b00;" vertex="1" parent="1">
          <mxGeometry x="770" y="510" width="120" height="60" as="geometry" />
        </mxCell>
        <mxCell id="DDW7LlrJ7NtLlArkNrAU-4" value="Resume" style="rounded=0;whiteSpace=wrap;html=1;fillColor=#d5e8d4;strokeColor=#82b366;" vertex="1" parent="1">
          <mxGeometry x="525" y="510" width="120" height="60" as="geometry" />
        </mxCell>
        <mxCell id="DDW7LlrJ7NtLlArkNrAU-5" value="Resume Tips" style="rounded=0;whiteSpace=wrap;html=1;fillColor=#d5e8d4;strokeColor=#82b366;" vertex="1" parent="1">
          <mxGeometry x="680" y="560" width="120" height="60" as="geometry" />
        </mxCell>
        <mxCell id="vd6nBaBK3zYr2zuKlT-W-4" style="edgeStyle=orthogonalEdgeStyle;rounded=0;orthogonalLoop=1;jettySize=auto;html=1;entryX=0;entryY=0.5;entryDx=0;entryDy=0;" edge="1" parent="1" source="vd6nBaBK3zYr2zuKlT-W-1" target="vd6nBaBK3zYr2zuKlT-W-3">
          <mxGeometry relative="1" as="geometry" />
        </mxCell>
        <mxCell id="vd6nBaBK3zYr2zuKlT-W-1" value="Submit resume" style="rounded=0;whiteSpace=wrap;html=1;fillColor=#cce5ff;strokeColor=#36393d;" vertex="1" parent="1">
          <mxGeometry x="470" y="670" width="120" height="60" as="geometry" />
        </mxCell>
        <mxCell id="vd6nBaBK3zYr2zuKlT-W-2" value="Job Candidate" style="rounded=0;whiteSpace=wrap;html=1;fillColor=#ffff88;strokeColor=#36393d;" vertex="1" parent="1">
          <mxGeometry x="370" y="720" width="120" height="60" as="geometry" />
        </mxCell>
        <mxCell id="vd6nBaBK3zYr2zuKlT-W-7" style="edgeStyle=orthogonalEdgeStyle;rounded=0;orthogonalLoop=1;jettySize=auto;html=1;entryX=0;entryY=0.5;entryDx=0;entryDy=0;" edge="1" parent="1" source="vd6nBaBK3zYr2zuKlT-W-3" target="vd6nBaBK3zYr2zuKlT-W-38">
          <mxGeometry relative="1" as="geometry" />
        </mxCell>
        <mxCell id="vd6nBaBK3zYr2zuKlT-W-3" value="Resume submitted" style="rounded=0;whiteSpace=wrap;html=1;fillColor=#ffe6cc;strokeColor=#d79b00;" vertex="1" parent="1">
          <mxGeometry x="620" y="720" width="120" height="60" as="geometry" />
        </mxCell>
        <mxCell id="vd6nBaBK3zYr2zuKlT-W-5" value="Resume" style="rounded=0;whiteSpace=wrap;html=1;fillColor=#d5e8d4;strokeColor=#82b366;" vertex="1" parent="1">
          <mxGeometry x="520" y="770" width="120" height="60" as="geometry" />
        </mxCell>
        <mxCell id="nr668dQrNdN1Qu-H5N3p-35" style="edgeStyle=orthogonalEdgeStyle;rounded=0;orthogonalLoop=1;jettySize=auto;html=1;entryX=0.5;entryY=0;entryDx=0;entryDy=0;" edge="1" parent="1" source="vd6nBaBK3zYr2zuKlT-W-6" target="vd6nBaBK3zYr2zuKlT-W-41">
          <mxGeometry relative="1" as="geometry" />
        </mxCell>
        <mxCell id="vd6nBaBK3zYr2zuKlT-W-6" value="anonymized &amp;amp; generated story" style="rounded=0;whiteSpace=wrap;html=1;fillColor=#ffe6cc;strokeColor=#d79b00;" vertex="1" parent="1">
          <mxGeometry x="940" y="822" width="120" height="60" as="geometry" />
        </mxCell>
        <mxCell id="vd6nBaBK3zYr2zuKlT-W-8" value="ResumeStory" style="rounded=0;whiteSpace=wrap;html=1;fillColor=#d5e8d4;strokeColor=#82b366;" vertex="1" parent="1">
          <mxGeometry x="840" y="870" width="120" height="60" as="geometry" />
        </mxCell>
        <mxCell id="vd6nBaBK3zYr2zuKlT-W-13" style="edgeStyle=orthogonalEdgeStyle;rounded=0;orthogonalLoop=1;jettySize=auto;html=1;entryX=0;entryY=0.5;entryDx=0;entryDy=0;" edge="1" parent="1" source="vd6nBaBK3zYr2zuKlT-W-10" target="vd6nBaBK3zYr2zuKlT-W-12">
          <mxGeometry relative="1" as="geometry" />
        </mxCell>
        <mxCell id="vd6nBaBK3zYr2zuKlT-W-10" value="Register to Clearview" style="rounded=0;whiteSpace=wrap;html=1;fillColor=#cce5ff;strokeColor=#36393d;" vertex="1" parent="1">
          <mxGeometry x="100" y="1108" width="120" height="60" as="geometry" />
        </mxCell>
        <mxCell id="vd6nBaBK3zYr2zuKlT-W-11" value="Job Employer" style="rounded=0;whiteSpace=wrap;html=1;fillColor=#ffff88;strokeColor=#36393d;" vertex="1" parent="1">
          <mxGeometry y="1158" width="120" height="60" as="geometry" />
        </mxCell>
        <mxCell id="vd6nBaBK3zYr2zuKlT-W-30" style="edgeStyle=orthogonalEdgeStyle;rounded=0;orthogonalLoop=1;jettySize=auto;html=1;entryX=0;entryY=0.5;entryDx=0;entryDy=0;" edge="1" parent="1" source="vd6nBaBK3zYr2zuKlT-W-12" target="vd6nBaBK3zYr2zuKlT-W-29">
          <mxGeometry relative="1" as="geometry" />
        </mxCell>
        <mxCell id="qTahu4m1CZD2g2QTslo6-3" style="edgeStyle=orthogonalEdgeStyle;rounded=0;orthogonalLoop=1;jettySize=auto;html=1;entryX=0;entryY=0.5;entryDx=0;entryDy=0;exitX=0.5;exitY=1;exitDx=0;exitDy=0;" edge="1" parent="1" source="vd6nBaBK3zYr2zuKlT-W-12" target="qTahu4m1CZD2g2QTslo6-1">
          <mxGeometry relative="1" as="geometry" />
        </mxCell>
        <mxCell id="vd6nBaBK3zYr2zuKlT-W-12" value="Employer registered" style="rounded=0;whiteSpace=wrap;html=1;fillColor=#ffe6cc;strokeColor=#d79b00;" vertex="1" parent="1">
          <mxGeometry x="250" y="1148" width="120" height="60" as="geometry" />
        </mxCell>
        <mxCell id="vd6nBaBK3zYr2zuKlT-W-14" value="Candidate" style="rounded=0;whiteSpace=wrap;html=1;fillColor=#d5e8d4;strokeColor=#82b366;" vertex="1" parent="1">
          <mxGeometry x="150" y="370" width="120" height="60" as="geometry" />
        </mxCell>
        <mxCell id="vd6nBaBK3zYr2zuKlT-W-15" value="Employer" style="rounded=0;whiteSpace=wrap;html=1;fillColor=#d5e8d4;strokeColor=#82b366;" vertex="1" parent="1">
          <mxGeometry x="150" y="1198" width="120" height="60" as="geometry" />
        </mxCell>
        <mxCell id="vd6nBaBK3zYr2zuKlT-W-21" style="edgeStyle=orthogonalEdgeStyle;rounded=0;orthogonalLoop=1;jettySize=auto;html=1;" edge="1" parent="1" source="vd6nBaBK3zYr2zuKlT-W-16" target="vd6nBaBK3zYr2zuKlT-W-19">
          <mxGeometry relative="1" as="geometry" />
        </mxCell>
        <mxCell id="vd6nBaBK3zYr2zuKlT-W-16" value="Update resume" style="rounded=0;whiteSpace=wrap;html=1;fillColor=#cce5ff;strokeColor=#36393d;" vertex="1" parent="1">
          <mxGeometry x="465" y="152" width="120" height="60" as="geometry" />
        </mxCell>
        <mxCell id="vd6nBaBK3zYr2zuKlT-W-17" value="Job Candidate" style="rounded=0;whiteSpace=wrap;html=1;fillColor=#ffff88;strokeColor=#36393d;" vertex="1" parent="1">
          <mxGeometry x="365" y="202" width="120" height="60" as="geometry" />
        </mxCell>
        <mxCell id="vd6nBaBK3zYr2zuKlT-W-27" style="edgeStyle=orthogonalEdgeStyle;rounded=0;orthogonalLoop=1;jettySize=auto;html=1;entryX=0;entryY=0.5;entryDx=0;entryDy=0;" edge="1" parent="1" source="vd6nBaBK3zYr2zuKlT-W-19" target="vd6nBaBK3zYr2zuKlT-W-23">
          <mxGeometry relative="1" as="geometry">
            <Array as="points">
              <mxPoint x="750" y="232" />
              <mxPoint x="750" y="292" />
            </Array>
          </mxGeometry>
        </mxCell>
        <mxCell id="vd6nBaBK3zYr2zuKlT-W-19" value="Resume updated" style="rounded=0;whiteSpace=wrap;html=1;fillColor=#ffe6cc;strokeColor=#d79b00;" vertex="1" parent="1">
          <mxGeometry x="620" y="202" width="120" height="60" as="geometry" />
        </mxCell>
        <mxCell id="vd6nBaBK3zYr2zuKlT-W-20" value="Resume" style="rounded=0;whiteSpace=wrap;html=1;fillColor=#d5e8d4;strokeColor=#82b366;" vertex="1" parent="1">
          <mxGeometry x="520" y="252" width="120" height="60" as="geometry" />
        </mxCell>
        <mxCell id="vd6nBaBK3zYr2zuKlT-W-28" style="edgeStyle=orthogonalEdgeStyle;rounded=0;orthogonalLoop=1;jettySize=auto;html=1;entryX=0.5;entryY=1;entryDx=0;entryDy=0;" edge="1" parent="1" source="vd6nBaBK3zYr2zuKlT-W-23" target="vd6nBaBK3zYr2zuKlT-W-17">
          <mxGeometry relative="1" as="geometry">
            <Array as="points">
              <mxPoint x="830" y="390" />
              <mxPoint x="425" y="390" />
            </Array>
          </mxGeometry>
        </mxCell>
        <mxCell id="vd6nBaBK3zYr2zuKlT-W-23" value="Generated tips received" style="rounded=0;whiteSpace=wrap;html=1;fillColor=#ffe6cc;strokeColor=#d79b00;" vertex="1" parent="1">
          <mxGeometry x="770" y="262" width="120" height="60" as="geometry" />
        </mxCell>
        <mxCell id="vd6nBaBK3zYr2zuKlT-W-24" value="Resume Tips" style="rounded=0;whiteSpace=wrap;html=1;fillColor=#d5e8d4;strokeColor=#82b366;" vertex="1" parent="1">
          <mxGeometry x="670" y="312" width="120" height="60" as="geometry" />
        </mxCell>
        <mxCell id="vd6nBaBK3zYr2zuKlT-W-33" style="edgeStyle=orthogonalEdgeStyle;rounded=0;orthogonalLoop=1;jettySize=auto;html=1;entryX=0;entryY=0.5;entryDx=0;entryDy=0;" edge="1" parent="1" source="vd6nBaBK3zYr2zuKlT-W-29" target="vd6nBaBK3zYr2zuKlT-W-31">
          <mxGeometry relative="1" as="geometry" />
        </mxCell>
        <mxCell id="vd6nBaBK3zYr2zuKlT-W-29" value="Create open job description" style="rounded=0;whiteSpace=wrap;html=1;fillColor=#cce5ff;strokeColor=#36393d;" vertex="1" parent="1">
          <mxGeometry x="405" y="1198" width="120" height="60" as="geometry" />
        </mxCell>
        <mxCell id="vd6nBaBK3zYr2zuKlT-W-36" style="edgeStyle=orthogonalEdgeStyle;rounded=0;orthogonalLoop=1;jettySize=auto;html=1;entryX=0;entryY=0.5;entryDx=0;entryDy=0;" edge="1" parent="1" source="vd6nBaBK3zYr2zuKlT-W-31" target="vd6nBaBK3zYr2zuKlT-W-35">
          <mxGeometry relative="1" as="geometry" />
        </mxCell>
        <mxCell id="vd6nBaBK3zYr2zuKlT-W-31" value="Job description created" style="rounded=0;whiteSpace=wrap;html=1;fillColor=#ffe6cc;strokeColor=#d79b00;" vertex="1" parent="1">
          <mxGeometry x="560" y="1248" width="120" height="60" as="geometry" />
        </mxCell>
        <mxCell id="vd6nBaBK3zYr2zuKlT-W-32" value="Job Employer" style="rounded=0;whiteSpace=wrap;html=1;fillColor=#ffff88;strokeColor=#36393d;" vertex="1" parent="1">
          <mxGeometry x="300" y="1248" width="120" height="60" as="geometry" />
        </mxCell>
        <mxCell id="vd6nBaBK3zYr2zuKlT-W-34" value="JobDescription" style="rounded=0;whiteSpace=wrap;html=1;fillColor=#d5e8d4;strokeColor=#82b366;" vertex="1" parent="1">
          <mxGeometry x="460" y="1298" width="120" height="60" as="geometry" />
        </mxCell>
        <mxCell id="vd6nBaBK3zYr2zuKlT-W-42" style="edgeStyle=orthogonalEdgeStyle;rounded=0;orthogonalLoop=1;jettySize=auto;html=1;entryX=0;entryY=0.5;entryDx=0;entryDy=0;" edge="1" parent="1" source="vd6nBaBK3zYr2zuKlT-W-35" target="vd6nBaBK3zYr2zuKlT-W-41">
          <mxGeometry relative="1" as="geometry" />
        </mxCell>
        <mxCell id="vd6nBaBK3zYr2zuKlT-W-35" value="Find match" style="rounded=0;whiteSpace=wrap;html=1;fillColor=#cce5ff;strokeColor=#36393d;" vertex="1" parent="1">
          <mxGeometry x="730" y="1298" width="120" height="60" as="geometry" />
        </mxCell>
        <mxCell id="vd6nBaBK3zYr2zuKlT-W-37" value="AI" style="rounded=0;whiteSpace=wrap;html=1;fillColor=#ffcccc;strokeColor=#36393d;" vertex="1" parent="1">
          <mxGeometry x="630" y="1338" width="120" height="60" as="geometry" />
        </mxCell>
        <mxCell id="vd6nBaBK3zYr2zuKlT-W-40" style="edgeStyle=orthogonalEdgeStyle;rounded=0;orthogonalLoop=1;jettySize=auto;html=1;entryX=0;entryY=0.5;entryDx=0;entryDy=0;" edge="1" parent="1" source="vd6nBaBK3zYr2zuKlT-W-38" target="vd6nBaBK3zYr2zuKlT-W-6">
          <mxGeometry relative="1" as="geometry" />
        </mxCell>
        <mxCell id="vd6nBaBK3zYr2zuKlT-W-38" value="Anonymize &amp;amp; generate story" style="rounded=0;whiteSpace=wrap;html=1;fillColor=#cce5ff;strokeColor=#36393d;" vertex="1" parent="1">
          <mxGeometry x="780" y="772" width="120" height="60" as="geometry" />
        </mxCell>
        <mxCell id="vd6nBaBK3zYr2zuKlT-W-39" value="AI" style="rounded=0;whiteSpace=wrap;html=1;fillColor=#ffcccc;strokeColor=#36393d;" vertex="1" parent="1">
          <mxGeometry x="680" y="822" width="120" height="60" as="geometry" />
        </mxCell>
        <mxCell id="vd6nBaBK3zYr2zuKlT-W-41" value="Match found" style="rounded=0;whiteSpace=wrap;html=1;fillColor=#ffe6cc;strokeColor=#d79b00;" vertex="1" parent="1">
          <mxGeometry x="900" y="1338" width="120" height="60" as="geometry" />
        </mxCell>
        <mxCell id="vd6nBaBK3zYr2zuKlT-W-43" value="JobMatch" style="rounded=0;whiteSpace=wrap;html=1;fillColor=#d5e8d4;strokeColor=#82b366;" vertex="1" parent="1">
          <mxGeometry x="800" y="1388" width="120" height="60" as="geometry" />
        </mxCell>
        <mxCell id="qTahu4m1CZD2g2QTslo6-6" style="edgeStyle=orthogonalEdgeStyle;rounded=0;orthogonalLoop=1;jettySize=auto;html=1;entryX=0;entryY=0.5;entryDx=0;entryDy=0;" edge="1" parent="1" source="qTahu4m1CZD2g2QTslo6-1" target="qTahu4m1CZD2g2QTslo6-5">
          <mxGeometry relative="1" as="geometry" />
        </mxCell>
        <mxCell id="qTahu4m1CZD2g2QTslo6-1" value="Unlock resume" style="rounded=0;whiteSpace=wrap;html=1;fillColor=#cce5ff;strokeColor=#36393d;" vertex="1" parent="1">
          <mxGeometry x="400" y="1420" width="120" height="60" as="geometry" />
        </mxCell>
        <mxCell id="qTahu4m1CZD2g2QTslo6-2" value="Job Employer" style="rounded=0;whiteSpace=wrap;html=1;fillColor=#ffff88;strokeColor=#36393d;" vertex="1" parent="1">
          <mxGeometry x="300" y="1470" width="120" height="60" as="geometry" />
        </mxCell>
        <mxCell id="qTahu4m1CZD2g2QTslo6-9" style="edgeStyle=orthogonalEdgeStyle;rounded=0;orthogonalLoop=1;jettySize=auto;html=1;entryX=0;entryY=0.5;entryDx=0;entryDy=0;" edge="1" parent="1" source="qTahu4m1CZD2g2QTslo6-5" target="qTahu4m1CZD2g2QTslo6-8">
          <mxGeometry relative="1" as="geometry" />
        </mxCell>
        <mxCell id="qTahu4m1CZD2g2QTslo6-16" style="edgeStyle=orthogonalEdgeStyle;rounded=0;orthogonalLoop=1;jettySize=auto;html=1;entryX=0;entryY=0.5;entryDx=0;entryDy=0;exitX=0.5;exitY=1;exitDx=0;exitDy=0;" edge="1" parent="1" source="qTahu4m1CZD2g2QTslo6-5" target="qTahu4m1CZD2g2QTslo6-15">
          <mxGeometry relative="1" as="geometry" />
        </mxCell>
        <mxCell id="qTahu4m1CZD2g2QTslo6-38" style="edgeStyle=orthogonalEdgeStyle;rounded=0;orthogonalLoop=1;jettySize=auto;html=1;entryX=0;entryY=0.5;entryDx=0;entryDy=0;exitX=0.5;exitY=1;exitDx=0;exitDy=0;" edge="1" parent="1" source="qTahu4m1CZD2g2QTslo6-5" target="qTahu4m1CZD2g2QTslo6-28">
          <mxGeometry relative="1" as="geometry" />
        </mxCell>
        <mxCell id="qTahu4m1CZD2g2QTslo6-5" value="Resume unlocked" style="rounded=0;whiteSpace=wrap;html=1;fillColor=#ffe6cc;strokeColor=#d79b00;" vertex="1" parent="1">
          <mxGeometry x="560" y="1470" width="120" height="60" as="geometry" />
        </mxCell>
        <mxCell id="qTahu4m1CZD2g2QTslo6-7" value="Resume" style="rounded=0;whiteSpace=wrap;html=1;fillColor=#d5e8d4;strokeColor=#82b366;" vertex="1" parent="1">
          <mxGeometry x="460" y="1520" width="120" height="60" as="geometry" />
        </mxCell>
        <mxCell id="qTahu4m1CZD2g2QTslo6-13" style="edgeStyle=orthogonalEdgeStyle;rounded=0;orthogonalLoop=1;jettySize=auto;html=1;" edge="1" parent="1" source="qTahu4m1CZD2g2QTslo6-8" target="qTahu4m1CZD2g2QTslo6-12">
          <mxGeometry relative="1" as="geometry" />
        </mxCell>
        <mxCell id="qTahu4m1CZD2g2QTslo6-8" value="Pay for resume" style="rounded=0;whiteSpace=wrap;html=1;fillColor=#cce5ff;strokeColor=#36393d;" vertex="1" parent="1">
          <mxGeometry x="730" y="1520" width="120" height="60" as="geometry" />
        </mxCell>
        <mxCell id="qTahu4m1CZD2g2QTslo6-10" value="Payment Service" style="rounded=0;whiteSpace=wrap;html=1;fillColor=#ffcccc;strokeColor=#36393d;" vertex="1" parent="1">
          <mxGeometry x="630" y="1570" width="120" height="60" as="geometry" />
        </mxCell>
        <mxCell id="qTahu4m1CZD2g2QTslo6-12" value="Paid for resume" style="rounded=0;whiteSpace=wrap;html=1;fillColor=#ffe6cc;strokeColor=#d79b00;" vertex="1" parent="1">
          <mxGeometry x="890" y="1570" width="120" height="60" as="geometry" />
        </mxCell>
        <mxCell id="qTahu4m1CZD2g2QTslo6-14" value="ResumePayment" style="rounded=0;whiteSpace=wrap;html=1;fillColor=#d5e8d4;strokeColor=#82b366;" vertex="1" parent="1">
          <mxGeometry x="790" y="1620" width="120" height="60" as="geometry" />
        </mxCell>
        <mxCell id="qTahu4m1CZD2g2QTslo6-19" style="edgeStyle=orthogonalEdgeStyle;rounded=0;orthogonalLoop=1;jettySize=auto;html=1;entryX=0;entryY=0.5;entryDx=0;entryDy=0;" edge="1" parent="1" source="qTahu4m1CZD2g2QTslo6-15" target="qTahu4m1CZD2g2QTslo6-18">
          <mxGeometry relative="1" as="geometry">
            <Array as="points">
              <mxPoint x="860" y="1750" />
              <mxPoint x="860" y="1800" />
            </Array>
          </mxGeometry>
        </mxCell>
        <mxCell id="qTahu4m1CZD2g2QTslo6-15" value="Hire Candidate" style="rounded=0;whiteSpace=wrap;html=1;fillColor=#cce5ff;strokeColor=#36393d;" vertex="1" parent="1">
          <mxGeometry x="730" y="1720" width="120" height="60" as="geometry" />
        </mxCell>
        <mxCell id="qTahu4m1CZD2g2QTslo6-17" value="Job Employer" style="rounded=0;whiteSpace=wrap;html=1;fillColor=#ffff88;strokeColor=#36393d;" vertex="1" parent="1">
          <mxGeometry x="620" y="1770" width="120" height="60" as="geometry" />
        </mxCell>
        <mxCell id="qTahu4m1CZD2g2QTslo6-22" style="edgeStyle=orthogonalEdgeStyle;rounded=0;orthogonalLoop=1;jettySize=auto;html=1;entryX=0;entryY=0.5;entryDx=0;entryDy=0;" edge="1" parent="1" source="qTahu4m1CZD2g2QTslo6-18" target="qTahu4m1CZD2g2QTslo6-21">
          <mxGeometry relative="1" as="geometry" />
        </mxCell>
        <mxCell id="qTahu4m1CZD2g2QTslo6-18" value="Candidate Hired" style="rounded=0;whiteSpace=wrap;html=1;fillColor=#ffe6cc;strokeColor=#d79b00;" vertex="1" parent="1">
          <mxGeometry x="880" y="1770" width="120" height="60" as="geometry" />
        </mxCell>
        <mxCell id="qTahu4m1CZD2g2QTslo6-20" value="CandidateHirement" style="rounded=0;whiteSpace=wrap;html=1;fillColor=#d5e8d4;strokeColor=#82b366;" vertex="1" parent="1">
          <mxGeometry x="780" y="1820" width="120" height="60" as="geometry" />
        </mxCell>
        <mxCell id="qTahu4m1CZD2g2QTslo6-25" style="edgeStyle=orthogonalEdgeStyle;rounded=0;orthogonalLoop=1;jettySize=auto;html=1;entryX=0;entryY=0.5;entryDx=0;entryDy=0;" edge="1" parent="1" source="qTahu4m1CZD2g2QTslo6-21" target="qTahu4m1CZD2g2QTslo6-24">
          <mxGeometry relative="1" as="geometry" />
        </mxCell>
        <mxCell id="qTahu4m1CZD2g2QTslo6-21" value="Complete Survey" style="rounded=0;whiteSpace=wrap;html=1;fillColor=#cce5ff;strokeColor=#36393d;" vertex="1" parent="1">
          <mxGeometry x="1040" y="1820" width="120" height="60" as="geometry" />
        </mxCell>
        <mxCell id="qTahu4m1CZD2g2QTslo6-24" value="Survey Completed" style="rounded=0;whiteSpace=wrap;html=1;fillColor=#ffe6cc;strokeColor=#d79b00;" vertex="1" parent="1">
          <mxGeometry x="1200" y="1870" width="120" height="60" as="geometry" />
        </mxCell>
        <mxCell id="qTahu4m1CZD2g2QTslo6-26" value="CandidateHirementSurvey" style="rounded=0;whiteSpace=wrap;html=1;fillColor=#d5e8d4;strokeColor=#82b366;" vertex="1" parent="1">
          <mxGeometry x="1070" y="1920" width="150" height="60" as="geometry" />
        </mxCell>
        <mxCell id="qTahu4m1CZD2g2QTslo6-27" style="edgeStyle=orthogonalEdgeStyle;rounded=0;orthogonalLoop=1;jettySize=auto;html=1;entryX=0;entryY=0.5;entryDx=0;entryDy=0;" edge="1" parent="1" source="qTahu4m1CZD2g2QTslo6-28" target="qTahu4m1CZD2g2QTslo6-31">
          <mxGeometry relative="1" as="geometry">
            <Array as="points">
              <mxPoint x="860" y="1990" />
              <mxPoint x="860" y="2040" />
            </Array>
          </mxGeometry>
        </mxCell>
        <mxCell id="qTahu4m1CZD2g2QTslo6-28" value="Skip Candidate" style="rounded=0;whiteSpace=wrap;html=1;fillColor=#cce5ff;strokeColor=#36393d;" vertex="1" parent="1">
          <mxGeometry x="730" y="1960" width="120" height="60" as="geometry" />
        </mxCell>
        <mxCell id="qTahu4m1CZD2g2QTslo6-29" value="Job Employer" style="rounded=0;whiteSpace=wrap;html=1;fillColor=#ffff88;strokeColor=#36393d;" vertex="1" parent="1">
          <mxGeometry x="620" y="2010" width="120" height="60" as="geometry" />
        </mxCell>
        <mxCell id="qTahu4m1CZD2g2QTslo6-30" style="edgeStyle=orthogonalEdgeStyle;rounded=0;orthogonalLoop=1;jettySize=auto;html=1;entryX=0;entryY=0.5;entryDx=0;entryDy=0;" edge="1" parent="1" source="qTahu4m1CZD2g2QTslo6-31" target="qTahu4m1CZD2g2QTslo6-21">
          <mxGeometry relative="1" as="geometry" />
        </mxCell>
        <mxCell id="qTahu4m1CZD2g2QTslo6-31" value="Candidate Skipped" style="rounded=0;whiteSpace=wrap;html=1;fillColor=#ffe6cc;strokeColor=#d79b00;" vertex="1" parent="1">
          <mxGeometry x="880" y="2010" width="120" height="60" as="geometry" />
        </mxCell>
        <mxCell id="qTahu4m1CZD2g2QTslo6-32" value="CandidateSkipped" style="rounded=0;whiteSpace=wrap;html=1;fillColor=#d5e8d4;strokeColor=#82b366;" vertex="1" parent="1">
          <mxGeometry x="780" y="2060" width="120" height="60" as="geometry" />
        </mxCell>
        <mxCell id="qTahu4m1CZD2g2QTslo6-23" value="Job Employer" style="rounded=0;whiteSpace=wrap;html=1;fillColor=#ffff88;strokeColor=#36393d;" vertex="1" parent="1">
          <mxGeometry x="930" y="1870" width="120" height="60" as="geometry" />
        </mxCell>
        <mxCell id="nr668dQrNdN1Qu-H5N3p-8" style="edgeStyle=orthogonalEdgeStyle;rounded=0;orthogonalLoop=1;jettySize=auto;html=1;entryX=0;entryY=0.5;entryDx=0;entryDy=0;" edge="1" parent="1" source="nr668dQrNdN1Qu-H5N3p-4" target="nr668dQrNdN1Qu-H5N3p-7">
          <mxGeometry relative="1" as="geometry" />
        </mxCell>
        <mxCell id="nr668dQrNdN1Qu-H5N3p-4" value="Remove resume" style="rounded=0;whiteSpace=wrap;html=1;fillColor=#cce5ff;strokeColor=#36393d;" vertex="1" parent="1">
          <mxGeometry x="470" y="882" width="120" height="60" as="geometry" />
        </mxCell>
        <mxCell id="nr668dQrNdN1Qu-H5N3p-5" value="Job Candidate" style="rounded=0;whiteSpace=wrap;html=1;fillColor=#ffff88;strokeColor=#36393d;" vertex="1" parent="1">
          <mxGeometry x="370" y="930" width="120" height="60" as="geometry" />
        </mxCell>
        <mxCell id="nr668dQrNdN1Qu-H5N3p-6" style="edgeStyle=orthogonalEdgeStyle;rounded=0;orthogonalLoop=1;jettySize=auto;html=1;exitX=0.5;exitY=1;exitDx=0;exitDy=0;" edge="1" parent="1" source="h68p6T1j22FLT3B7f_oG-4" target="nr668dQrNdN1Qu-H5N3p-4">
          <mxGeometry relative="1" as="geometry">
            <mxPoint x="320" y="390" as="sourcePoint" />
            <mxPoint x="480" y="710" as="targetPoint" />
            <Array as="points">
              <mxPoint x="310" y="910" />
            </Array>
          </mxGeometry>
        </mxCell>
        <mxCell id="nr668dQrNdN1Qu-H5N3p-7" value="Resume removed" style="rounded=0;whiteSpace=wrap;html=1;fillColor=#ffe6cc;strokeColor=#d79b00;" vertex="1" parent="1">
          <mxGeometry x="620" y="930" width="120" height="60" as="geometry" />
        </mxCell>
        <mxCell id="nr668dQrNdN1Qu-H5N3p-10" value="Resume" style="rounded=0;whiteSpace=wrap;html=1;fillColor=#d5e8d4;strokeColor=#82b366;" vertex="1" parent="1">
          <mxGeometry x="510" y="980" width="120" height="60" as="geometry" />
        </mxCell>
      </root>
    </mxGraphModel>
  </diagram>
  <diagram id="WJqLIm6Arno0MIoqfkYm" name="Components">
    <mxGraphModel dx="-317" dy="651" grid="1" gridSize="10" guides="1" tooltips="1" connect="1" arrows="1" fold="1" page="1" pageScale="1" pageWidth="1169" pageHeight="1654" math="0" shadow="0">
      <root>
        <mxCell id="0" />
        <mxCell id="1" parent="0" />
        <mxCell id="YhT3iaJ2nzur_h3uL0iz-1" value="&lt;font style=&quot;font-size: 16px;&quot;&gt;&lt;b&gt;Resume tracker&lt;/b&gt;&lt;/font&gt;" style="rounded=1;whiteSpace=wrap;html=1;verticalAlign=top;" vertex="1" parent="1">
          <mxGeometry x="1440" y="850" width="430" height="492" as="geometry" />
        </mxCell>
        <mxCell id="YhT3iaJ2nzur_h3uL0iz-2" value="&lt;font style=&quot;font-size: 16px;&quot;&gt;&lt;b&gt;Survey Collector&lt;/b&gt;&lt;/font&gt;" style="rounded=1;whiteSpace=wrap;html=1;verticalAlign=top;" vertex="1" parent="1">
          <mxGeometry x="1920" y="1113" width="580" height="230" as="geometry" />
        </mxCell>
        <mxCell id="YhT3iaJ2nzur_h3uL0iz-3" value="&lt;span style=&quot;font-size: 16px;&quot;&gt;&lt;b&gt;Resume Payout&lt;/b&gt;&lt;/span&gt;" style="rounded=1;whiteSpace=wrap;html=1;verticalAlign=top;" vertex="1" parent="1">
          <mxGeometry x="2180" y="822" width="310" height="204" as="geometry" />
        </mxCell>
        <mxCell id="YhT3iaJ2nzur_h3uL0iz-4" value="&lt;font style=&quot;font-size: 16px;&quot;&gt;&lt;b&gt;Resume AI matcher&lt;/b&gt;&lt;/font&gt;" style="rounded=1;whiteSpace=wrap;html=1;verticalAlign=top;" vertex="1" parent="1">
          <mxGeometry x="2170" y="550" width="320" height="210" as="geometry" />
        </mxCell>
        <mxCell id="YhT3iaJ2nzur_h3uL0iz-5" value="&lt;font style=&quot;font-size: 16px;&quot;&gt;&lt;b&gt;AI tips &amp;amp; anonymizer&lt;/b&gt;&lt;/font&gt;" style="rounded=1;whiteSpace=wrap;html=1;verticalAlign=top;" vertex="1" parent="1">
          <mxGeometry x="1990" y="240" width="500" height="248" as="geometry" />
        </mxCell>
        <mxCell id="YhT3iaJ2nzur_h3uL0iz-6" value="&lt;font style=&quot;font-size: 16px;&quot;&gt;&lt;b&gt;Candidate manager&lt;/b&gt;&lt;/font&gt;" style="rounded=1;whiteSpace=wrap;html=1;verticalAlign=top;" vertex="1" parent="1">
          <mxGeometry x="1440" y="240" width="300" height="200" as="geometry" />
        </mxCell>
        <mxCell id="YhT3iaJ2nzur_h3uL0iz-7" value="Job Candidate" style="rounded=0;whiteSpace=wrap;html=1;fillColor=#ffff88;strokeColor=#36393d;" vertex="1" parent="1">
          <mxGeometry x="1480" y="890" width="120" height="60" as="geometry" />
        </mxCell>
        <mxCell id="YhT3iaJ2nzur_h3uL0iz-8" value="Upload resume" style="rounded=0;whiteSpace=wrap;html=1;fillColor=#cce5ff;strokeColor=#36393d;" vertex="1" parent="1">
          <mxGeometry x="1720" y="952" width="120" height="60" as="geometry" />
        </mxCell>
        <mxCell id="YhT3iaJ2nzur_h3uL0iz-9" value="Register to Clearview" style="rounded=0;whiteSpace=wrap;html=1;fillColor=#cce5ff;strokeColor=#36393d;" vertex="1" parent="1">
          <mxGeometry x="1450" y="290" width="120" height="60" as="geometry" />
        </mxCell>
        <mxCell id="YhT3iaJ2nzur_h3uL0iz-10" value="Submit resume" style="rounded=0;whiteSpace=wrap;html=1;fillColor=#cce5ff;strokeColor=#36393d;" vertex="1" parent="1">
          <mxGeometry x="1600" y="890" width="120" height="60" as="geometry" />
        </mxCell>
        <mxCell id="YhT3iaJ2nzur_h3uL0iz-11" value="Update resume" style="rounded=0;whiteSpace=wrap;html=1;fillColor=#cce5ff;strokeColor=#36393d;" vertex="1" parent="1">
          <mxGeometry x="1720" y="890" width="120" height="60" as="geometry" />
        </mxCell>
        <mxCell id="YhT3iaJ2nzur_h3uL0iz-12" value="Remove resume" style="rounded=0;whiteSpace=wrap;html=1;fillColor=#cce5ff;strokeColor=#36393d;" vertex="1" parent="1">
          <mxGeometry x="1600" y="952" width="120" height="60" as="geometry" />
        </mxCell>
        <mxCell id="YhT3iaJ2nzur_h3uL0iz-13" value="Anonymize &amp;amp; generate story" style="rounded=0;whiteSpace=wrap;html=1;fillColor=#cce5ff;strokeColor=#36393d;" vertex="1" parent="1">
          <mxGeometry x="2030" y="308" width="120" height="60" as="geometry" />
        </mxCell>
        <mxCell id="YhT3iaJ2nzur_h3uL0iz-14" value="Resume uploaded" style="rounded=0;whiteSpace=wrap;html=1;fillColor=#ffe6cc;strokeColor=#d79b00;" vertex="1" parent="1">
          <mxGeometry x="1710" y="1192" width="120" height="60" as="geometry" />
        </mxCell>
        <mxCell id="YhT3iaJ2nzur_h3uL0iz-15" value="Candidate registered" style="rounded=0;whiteSpace=wrap;html=1;fillColor=#ffe6cc;strokeColor=#d79b00;" vertex="1" parent="1">
          <mxGeometry x="1600" y="288" width="120" height="60" as="geometry" />
        </mxCell>
        <mxCell id="YhT3iaJ2nzur_h3uL0iz-16" value="Resume submitted" style="rounded=0;whiteSpace=wrap;html=1;fillColor=#ffe6cc;strokeColor=#d79b00;" vertex="1" parent="1">
          <mxGeometry x="1590" y="1254" width="120" height="60" as="geometry" />
        </mxCell>
        <mxCell id="YhT3iaJ2nzur_h3uL0iz-17" value="anonymized &amp;amp; generated story" style="rounded=0;whiteSpace=wrap;html=1;fillColor=#ffe6cc;strokeColor=#d79b00;" vertex="1" parent="1">
          <mxGeometry x="2320" y="308" width="120" height="60" as="geometry" />
        </mxCell>
        <mxCell id="YhT3iaJ2nzur_h3uL0iz-18" value="Resume updated" style="rounded=0;whiteSpace=wrap;html=1;fillColor=#ffe6cc;strokeColor=#d79b00;" vertex="1" parent="1">
          <mxGeometry x="1590" y="1192" width="120" height="60" as="geometry" />
        </mxCell>
        <mxCell id="YhT3iaJ2nzur_h3uL0iz-19" value="Generated tips received" style="rounded=0;whiteSpace=wrap;html=1;fillColor=#ffe6cc;strokeColor=#d79b00;" vertex="1" parent="1">
          <mxGeometry x="2175" y="308" width="120" height="60" as="geometry" />
        </mxCell>
        <mxCell id="YhT3iaJ2nzur_h3uL0iz-20" value="Resume removed" style="rounded=0;whiteSpace=wrap;html=1;fillColor=#ffe6cc;strokeColor=#d79b00;" vertex="1" parent="1">
          <mxGeometry x="1470" y="1254" width="120" height="60" as="geometry" />
        </mxCell>
        <mxCell id="YhT3iaJ2nzur_h3uL0iz-21" value="ResumeStory" style="rounded=0;whiteSpace=wrap;html=1;fillColor=#d5e8d4;strokeColor=#82b366;" vertex="1" parent="1">
          <mxGeometry x="2320" y="368" width="120" height="60" as="geometry" />
        </mxCell>
        <mxCell id="YhT3iaJ2nzur_h3uL0iz-22" value="Candidate" style="rounded=0;whiteSpace=wrap;html=1;fillColor=#d5e8d4;strokeColor=#82b366;" vertex="1" parent="1">
          <mxGeometry x="1600" y="350" width="120" height="60" as="geometry" />
        </mxCell>
        <mxCell id="YhT3iaJ2nzur_h3uL0iz-23" value="Resume" style="rounded=0;whiteSpace=wrap;html=1;fillColor=#d5e8d4;strokeColor=#82b366;" vertex="1" parent="1">
          <mxGeometry x="1470" y="1192" width="120" height="60" as="geometry" />
        </mxCell>
        <mxCell id="YhT3iaJ2nzur_h3uL0iz-24" value="Resume Tips" style="rounded=0;whiteSpace=wrap;html=1;fillColor=#d5e8d4;strokeColor=#82b366;" vertex="1" parent="1">
          <mxGeometry x="2175" y="368" width="120" height="60" as="geometry" />
        </mxCell>
        <mxCell id="YhT3iaJ2nzur_h3uL0iz-25" value="&lt;font style=&quot;font-size: 16px;&quot;&gt;&lt;b&gt;Hiring manager&lt;/b&gt;&lt;/font&gt;" style="rounded=1;whiteSpace=wrap;html=1;verticalAlign=top;" vertex="1" parent="1">
          <mxGeometry x="1440" y="481.5" width="410" height="340.5" as="geometry" />
        </mxCell>
        <mxCell id="YhT3iaJ2nzur_h3uL0iz-26" value="AI" style="rounded=0;whiteSpace=wrap;html=1;fillColor=#ffcccc;strokeColor=#36393d;" vertex="1" parent="1">
          <mxGeometry x="2030" y="368" width="120" height="60" as="geometry" />
        </mxCell>
        <mxCell id="YhT3iaJ2nzur_h3uL0iz-27" value="Register to Clearview" style="rounded=0;whiteSpace=wrap;html=1;fillColor=#cce5ff;strokeColor=#36393d;" vertex="1" parent="1">
          <mxGeometry x="1580" y="542" width="120" height="60" as="geometry" />
        </mxCell>
        <mxCell id="YhT3iaJ2nzur_h3uL0iz-28" value="Create open job description" style="rounded=0;whiteSpace=wrap;html=1;fillColor=#cce5ff;strokeColor=#36393d;" vertex="1" parent="1">
          <mxGeometry x="1700" y="542" width="120" height="60" as="geometry" />
        </mxCell>
        <mxCell id="YhT3iaJ2nzur_h3uL0iz-29" value="Find match" style="rounded=0;whiteSpace=wrap;html=1;fillColor=#cce5ff;strokeColor=#36393d;" vertex="1" parent="1">
          <mxGeometry x="2195" y="614" width="120" height="60" as="geometry" />
        </mxCell>
        <mxCell id="YhT3iaJ2nzur_h3uL0iz-30" value="Pay for resume" style="rounded=0;whiteSpace=wrap;html=1;fillColor=#cce5ff;strokeColor=#36393d;" vertex="1" parent="1">
          <mxGeometry x="2200" y="882" width="120" height="60" as="geometry" />
        </mxCell>
        <mxCell id="YhT3iaJ2nzur_h3uL0iz-31" value="Hire Candidate" style="rounded=0;whiteSpace=wrap;html=1;fillColor=#cce5ff;strokeColor=#36393d;" vertex="1" parent="1">
          <mxGeometry x="1580" y="604" width="120" height="60" as="geometry" />
        </mxCell>
        <mxCell id="YhT3iaJ2nzur_h3uL0iz-32" value="Complete Survey" style="rounded=0;whiteSpace=wrap;html=1;fillColor=#cce5ff;strokeColor=#36393d;" vertex="1" parent="1">
          <mxGeometry x="1940" y="1201" width="120" height="60" as="geometry" />
        </mxCell>
        <mxCell id="YhT3iaJ2nzur_h3uL0iz-33" value="Skip Candidate" style="rounded=0;whiteSpace=wrap;html=1;fillColor=#cce5ff;strokeColor=#36393d;" vertex="1" parent="1">
          <mxGeometry x="1700" y="604" width="120" height="60" as="geometry" />
        </mxCell>
        <mxCell id="YhT3iaJ2nzur_h3uL0iz-34" value="Job Employer" style="rounded=0;whiteSpace=wrap;html=1;fillColor=#ffff88;strokeColor=#36393d;" vertex="1" parent="1">
          <mxGeometry x="2200" y="942" width="120" height="60" as="geometry" />
        </mxCell>
        <mxCell id="YhT3iaJ2nzur_h3uL0iz-35" value="AI" style="rounded=0;whiteSpace=wrap;html=1;fillColor=#ffcccc;strokeColor=#36393d;" vertex="1" parent="1">
          <mxGeometry x="2195" y="674" width="120" height="60" as="geometry" />
        </mxCell>
        <mxCell id="YhT3iaJ2nzur_h3uL0iz-36" value="Employer registered" style="rounded=0;whiteSpace=wrap;html=1;fillColor=#ffe6cc;strokeColor=#d79b00;" vertex="1" parent="1">
          <mxGeometry x="1510" y="692" width="120" height="60" as="geometry" />
        </mxCell>
        <mxCell id="YhT3iaJ2nzur_h3uL0iz-37" value="Job description created" style="rounded=0;whiteSpace=wrap;html=1;fillColor=#ffe6cc;strokeColor=#d79b00;" vertex="1" parent="1">
          <mxGeometry x="1660" y="692" width="120" height="60" as="geometry" />
        </mxCell>
        <mxCell id="YhT3iaJ2nzur_h3uL0iz-38" value="Match found" style="rounded=0;whiteSpace=wrap;html=1;fillColor=#ffe6cc;strokeColor=#d79b00;" vertex="1" parent="1">
          <mxGeometry x="2345" y="614" width="120" height="60" as="geometry" />
        </mxCell>
        <mxCell id="YhT3iaJ2nzur_h3uL0iz-39" value="Resume unlocked" style="rounded=0;whiteSpace=wrap;html=1;fillColor=#ffe6cc;strokeColor=#d79b00;" vertex="1" parent="1">
          <mxGeometry x="1710" y="1254" width="120" height="60" as="geometry" />
        </mxCell>
        <mxCell id="YhT3iaJ2nzur_h3uL0iz-40" value="Paid for resume" style="rounded=0;whiteSpace=wrap;html=1;fillColor=#ffe6cc;strokeColor=#d79b00;" vertex="1" parent="1">
          <mxGeometry x="2350" y="882" width="120" height="60" as="geometry" />
        </mxCell>
        <mxCell id="YhT3iaJ2nzur_h3uL0iz-41" value="Candidate Hired" style="rounded=0;whiteSpace=wrap;html=1;fillColor=#ffe6cc;strokeColor=#d79b00;" vertex="1" parent="1">
          <mxGeometry x="2225" y="1201" width="120" height="60" as="geometry" />
        </mxCell>
        <mxCell id="YhT3iaJ2nzur_h3uL0iz-42" value="Survey Completed" style="rounded=0;whiteSpace=wrap;html=1;fillColor=#ffe6cc;strokeColor=#d79b00;" vertex="1" parent="1">
          <mxGeometry x="2090" y="1201" width="120" height="60" as="geometry" />
        </mxCell>
        <mxCell id="YhT3iaJ2nzur_h3uL0iz-43" value="Candidate Skipped" style="rounded=0;whiteSpace=wrap;html=1;fillColor=#ffe6cc;strokeColor=#d79b00;" vertex="1" parent="1">
          <mxGeometry x="2360" y="1201" width="120" height="60" as="geometry" />
        </mxCell>
        <mxCell id="YhT3iaJ2nzur_h3uL0iz-44" value="Employer" style="rounded=0;whiteSpace=wrap;html=1;fillColor=#d5e8d4;strokeColor=#82b366;" vertex="1" parent="1">
          <mxGeometry x="1510" y="752" width="120" height="60" as="geometry" />
        </mxCell>
        <mxCell id="YhT3iaJ2nzur_h3uL0iz-45" value="JobDescription" style="rounded=0;whiteSpace=wrap;html=1;fillColor=#d5e8d4;strokeColor=#82b366;" vertex="1" parent="1">
          <mxGeometry x="1660" y="752" width="120" height="60" as="geometry" />
        </mxCell>
        <mxCell id="YhT3iaJ2nzur_h3uL0iz-46" value="JobMatch" style="rounded=0;whiteSpace=wrap;html=1;fillColor=#d5e8d4;strokeColor=#82b366;" vertex="1" parent="1">
          <mxGeometry x="2345" y="674" width="120" height="60" as="geometry" />
        </mxCell>
        <mxCell id="YhT3iaJ2nzur_h3uL0iz-47" value="ResumePayment" style="rounded=0;whiteSpace=wrap;html=1;fillColor=#d5e8d4;strokeColor=#82b366;" vertex="1" parent="1">
          <mxGeometry x="2350" y="942" width="120" height="60" as="geometry" />
        </mxCell>
        <mxCell id="YhT3iaJ2nzur_h3uL0iz-48" value="CandidateHirement" style="rounded=0;whiteSpace=wrap;html=1;fillColor=#d5e8d4;strokeColor=#82b366;" vertex="1" parent="1">
          <mxGeometry x="2225" y="1261" width="120" height="60" as="geometry" />
        </mxCell>
        <mxCell id="YhT3iaJ2nzur_h3uL0iz-49" value="Candidate&lt;br style=&quot;font-size: 12px;&quot;&gt;HirementSurvey" style="rounded=0;whiteSpace=wrap;html=1;fillColor=#d5e8d4;strokeColor=#82b366;fontSize=12;" vertex="1" parent="1">
          <mxGeometry x="2090" y="1261" width="120" height="60" as="geometry" />
        </mxCell>
        <mxCell id="YhT3iaJ2nzur_h3uL0iz-50" value="CandidateSkipped" style="rounded=0;whiteSpace=wrap;html=1;fillColor=#d5e8d4;strokeColor=#82b366;" vertex="1" parent="1">
          <mxGeometry x="2360" y="1261" width="120" height="60" as="geometry" />
        </mxCell>
        <mxCell id="YhT3iaJ2nzur_h3uL0iz-51" value="Job Employer" style="rounded=0;whiteSpace=wrap;html=1;fillColor=#ffff88;strokeColor=#36393d;" vertex="1" parent="1">
          <mxGeometry x="1460" y="542" width="120" height="60" as="geometry" />
        </mxCell>
        <mxCell id="YhT3iaJ2nzur_h3uL0iz-52" value="Job Employer" style="rounded=0;whiteSpace=wrap;html=1;fillColor=#ffff88;strokeColor=#36393d;" vertex="1" parent="1">
          <mxGeometry x="1940" y="1261" width="120" height="60" as="geometry" />
        </mxCell>
        <mxCell id="YhT3iaJ2nzur_h3uL0iz-53" value="Job Candidate" style="rounded=0;whiteSpace=wrap;html=1;fillColor=#ffff88;strokeColor=#36393d;" vertex="1" parent="1">
          <mxGeometry x="1450" y="350" width="120" height="60" as="geometry" />
        </mxCell>
        <mxCell id="YhT3iaJ2nzur_h3uL0iz-54" value="Unlock resume" style="rounded=0;whiteSpace=wrap;html=1;fillColor=#cce5ff;strokeColor=#36393d;" vertex="1" parent="1">
          <mxGeometry x="1470" y="1030" width="120" height="60" as="geometry" />
        </mxCell>
        <mxCell id="YhT3iaJ2nzur_h3uL0iz-55" value="Job Employer" style="rounded=0;whiteSpace=wrap;html=1;fillColor=#ffff88;strokeColor=#36393d;" vertex="1" parent="1">
          <mxGeometry x="1470" y="1090" width="120" height="60" as="geometry" />
        </mxCell>
      </root>
    </mxGraphModel>
  </diagram>
  <diagram id="8oIkfuFmHHI1ZUvLErpL" name="Map">
    <mxGraphModel dx="852" dy="651" grid="1" gridSize="10" guides="1" tooltips="1" connect="1" arrows="1" fold="1" page="1" pageScale="1" pageWidth="1169" pageHeight="1654" math="0" shadow="0">
      <root>
        <mxCell id="0" />
        <mxCell id="1" parent="0" />
        <mxCell id="UwVn_ozQjKjahAv18PtA-1" value="" style="rounded=0;whiteSpace=wrap;html=1;strokeColor=none;" vertex="1" parent="1">
          <mxGeometry width="540" height="150" as="geometry" />
        </mxCell>
        <mxCell id="nFNHifdjk5pEwAkPNYva-1" value="System&lt;br&gt;(e.g. Third-Party, Payment service)" style="rounded=0;whiteSpace=wrap;html=1;fillColor=#f8cecc;strokeColor=#b85450;" vertex="1" parent="1">
          <mxGeometry x="15" y="80" width="120" height="60" as="geometry" />
        </mxCell>
        <mxCell id="nFNHifdjk5pEwAkPNYva-2" value="Actor&lt;br&gt;(e.g. Customers, internal employees)" style="rounded=0;whiteSpace=wrap;html=1;fillColor=#ffff88;strokeColor=#36393d;" vertex="1" parent="1">
          <mxGeometry x="15" y="10" width="120" height="60" as="geometry" />
        </mxCell>
        <mxCell id="nFNHifdjk5pEwAkPNYva-3" value="Command&lt;br&gt;(e.g. Submits an order)" style="rounded=0;whiteSpace=wrap;html=1;fillColor=#cce5ff;strokeColor=#36393d;" vertex="1" parent="1">
          <mxGeometry x="145" y="10" width="120" height="60" as="geometry" />
        </mxCell>
        <mxCell id="nFNHifdjk5pEwAkPNYva-4" value="Domain Event&lt;br&gt;(e.g. Order submitted)" style="rounded=0;whiteSpace=wrap;html=1;fillColor=#ffe6cc;strokeColor=#d79b00;" vertex="1" parent="1">
          <mxGeometry x="275" y="10" width="120" height="60" as="geometry" />
        </mxCell>
        <mxCell id="nFNHifdjk5pEwAkPNYva-5" value="Artefacts&lt;br&gt;(e.g. Order Id, Item Name)" style="rounded=0;whiteSpace=wrap;html=1;fillColor=#d5e8d4;strokeColor=#82b366;" vertex="1" parent="1">
          <mxGeometry x="275" y="80" width="120" height="60" as="geometry" />
        </mxCell>
        <mxCell id="nFNHifdjk5pEwAkPNYva-6" value="User Interface&lt;br&gt;(e.g. Web app)" style="rounded=0;whiteSpace=wrap;html=1;" vertex="1" parent="1">
          <mxGeometry x="405" y="10" width="120" height="60" as="geometry" />
        </mxCell>
        <mxCell id="nFNHifdjk5pEwAkPNYva-7" value="Policy&lt;br&gt;(Rules what happened on success or failure, etc.)" style="rounded=0;whiteSpace=wrap;html=1;fillColor=#e1d5e7;strokeColor=#9673a6;" vertex="1" parent="1">
          <mxGeometry x="145" y="80" width="120" height="60" as="geometry" />
        </mxCell>
      </root>
    </mxGraphModel>
  </diagram>
  <diagram id="YdBFjyvtg9xNq67p8ThD" name="Assets">
    <mxGraphModel dx="852" dy="651" grid="1" gridSize="10" guides="1" tooltips="1" connect="1" arrows="1" fold="1" page="1" pageScale="1" pageWidth="1169" pageHeight="1654" math="0" shadow="0">
      <root>
        <mxCell id="0" />
        <mxCell id="1" parent="0" />
        <mxCell id="aJQw6F4n-1IlwYii5Gm_-3" value="Entities" style="rounded=0;whiteSpace=wrap;html=1;verticalAlign=top;dashed=1;dashPattern=12 12;" vertex="1" parent="1">
          <mxGeometry x="30" y="130" width="210" height="250" as="geometry" />
        </mxCell>
        <mxCell id="aJQw6F4n-1IlwYii5Gm_-5" style="edgeStyle=orthogonalEdgeStyle;rounded=0;orthogonalLoop=1;jettySize=auto;html=1;entryX=0;entryY=0.5;entryDx=0;entryDy=0;" edge="1" parent="1" source="aJQw6F4n-1IlwYii5Gm_-1" target="aJQw6F4n-1IlwYii5Gm_-4">
          <mxGeometry relative="1" as="geometry">
            <Array as="points">
              <mxPoint x="135" y="255" />
            </Array>
          </mxGeometry>
        </mxCell>
        <mxCell id="aJQw6F4n-1IlwYii5Gm_-1" value="System&lt;br&gt;(e.g. Third-Party, Payment service)" style="rounded=0;whiteSpace=wrap;html=1;fillColor=#f8cecc;strokeColor=#b85450;" vertex="1" parent="1">
          <mxGeometry x="75" y="175" width="120" height="60" as="geometry" />
        </mxCell>
        <mxCell id="aJQw6F4n-1IlwYii5Gm_-6" style="edgeStyle=orthogonalEdgeStyle;rounded=0;orthogonalLoop=1;jettySize=auto;html=1;entryX=0;entryY=0.5;entryDx=0;entryDy=0;" edge="1" parent="1" source="aJQw6F4n-1IlwYii5Gm_-2" target="aJQw6F4n-1IlwYii5Gm_-4">
          <mxGeometry relative="1" as="geometry">
            <Array as="points">
              <mxPoint x="135" y="255" />
            </Array>
          </mxGeometry>
        </mxCell>
        <mxCell id="aJQw6F4n-1IlwYii5Gm_-7" value="Produces" style="edgeLabel;html=1;align=center;verticalAlign=middle;resizable=0;points=[];" vertex="1" connectable="0" parent="aJQw6F4n-1IlwYii5Gm_-6">
          <mxGeometry x="0.6105" y="1" relative="1" as="geometry">
            <mxPoint x="-43" y="1" as="offset" />
          </mxGeometry>
        </mxCell>
        <mxCell id="aJQw6F4n-1IlwYii5Gm_-2" value="Actor&lt;br&gt;(e.g. Customers, internal employees)" style="rounded=0;whiteSpace=wrap;html=1;fillColor=#ffff88;strokeColor=#36393d;" vertex="1" parent="1">
          <mxGeometry x="75" y="285" width="120" height="60" as="geometry" />
        </mxCell>
        <mxCell id="aJQw6F4n-1IlwYii5Gm_-9" style="edgeStyle=orthogonalEdgeStyle;rounded=0;orthogonalLoop=1;jettySize=auto;html=1;entryX=0;entryY=0.5;entryDx=0;entryDy=0;" edge="1" parent="1" source="aJQw6F4n-1IlwYii5Gm_-4" target="aJQw6F4n-1IlwYii5Gm_-8">
          <mxGeometry relative="1" as="geometry" />
        </mxCell>
        <mxCell id="aJQw6F4n-1IlwYii5Gm_-4" value="Command&lt;br&gt;(e.g. Submits an order)" style="rounded=0;whiteSpace=wrap;html=1;fillColor=#dae8fc;strokeColor=#6c8ebf;" vertex="1" parent="1">
          <mxGeometry x="295" y="225" width="120" height="60" as="geometry" />
        </mxCell>
        <mxCell id="aJQw6F4n-1IlwYii5Gm_-11" value="" style="edgeStyle=orthogonalEdgeStyle;rounded=0;orthogonalLoop=1;jettySize=auto;html=1;" edge="1" parent="1" source="aJQw6F4n-1IlwYii5Gm_-8" target="aJQw6F4n-1IlwYii5Gm_-10">
          <mxGeometry relative="1" as="geometry" />
        </mxCell>
        <mxCell id="aJQw6F4n-1IlwYii5Gm_-16" value="" style="edgeStyle=orthogonalEdgeStyle;rounded=0;orthogonalLoop=1;jettySize=auto;html=1;entryX=0;entryY=0.5;entryDx=0;entryDy=0;exitX=0.5;exitY=0;exitDx=0;exitDy=0;" edge="1" parent="1" source="aJQw6F4n-1IlwYii5Gm_-8" target="aJQw6F4n-1IlwYii5Gm_-15">
          <mxGeometry relative="1" as="geometry" />
        </mxCell>
        <mxCell id="aJQw6F4n-1IlwYii5Gm_-8" value="Domain Event&lt;br&gt;(e.g. Order submitted)" style="rounded=0;whiteSpace=wrap;html=1;fillColor=#ffe6cc;strokeColor=#d79b00;" vertex="1" parent="1">
          <mxGeometry x="505" y="225" width="120" height="60" as="geometry" />
        </mxCell>
        <mxCell id="aJQw6F4n-1IlwYii5Gm_-13" value="" style="edgeStyle=orthogonalEdgeStyle;rounded=0;orthogonalLoop=1;jettySize=auto;html=1;" edge="1" parent="1" source="aJQw6F4n-1IlwYii5Gm_-10" target="aJQw6F4n-1IlwYii5Gm_-12">
          <mxGeometry relative="1" as="geometry" />
        </mxCell>
        <mxCell id="aJQw6F4n-1IlwYii5Gm_-10" value="Artefacts&lt;br&gt;(e.g. Order Id, Item Name)" style="rounded=0;whiteSpace=wrap;html=1;fillColor=#d5e8d4;strokeColor=#82b366;" vertex="1" parent="1">
          <mxGeometry x="705" y="225" width="120" height="60" as="geometry" />
        </mxCell>
        <mxCell id="aJQw6F4n-1IlwYii5Gm_-14" value="Interacted with by" style="edgeStyle=orthogonalEdgeStyle;rounded=0;orthogonalLoop=1;jettySize=auto;html=1;entryX=0.5;entryY=1;entryDx=0;entryDy=0;" edge="1" parent="1" source="aJQw6F4n-1IlwYii5Gm_-12" target="aJQw6F4n-1IlwYii5Gm_-2">
          <mxGeometry relative="1" as="geometry">
            <Array as="points">
              <mxPoint x="965" y="365" />
              <mxPoint x="135" y="365" />
            </Array>
          </mxGeometry>
        </mxCell>
        <mxCell id="aJQw6F4n-1IlwYii5Gm_-12" value="User Interface&lt;br&gt;(e.g. Web app)" style="rounded=0;whiteSpace=wrap;html=1;" vertex="1" parent="1">
          <mxGeometry x="905" y="225" width="120" height="60" as="geometry" />
        </mxCell>
        <mxCell id="aJQw6F4n-1IlwYii5Gm_-17" value="calls/ schedules" style="edgeStyle=orthogonalEdgeStyle;rounded=0;orthogonalLoop=1;jettySize=auto;html=1;entryX=0.5;entryY=0;entryDx=0;entryDy=0;exitX=0.5;exitY=0;exitDx=0;exitDy=0;" edge="1" parent="1" source="aJQw6F4n-1IlwYii5Gm_-15" target="aJQw6F4n-1IlwYii5Gm_-1">
          <mxGeometry relative="1" as="geometry" />
        </mxCell>
        <mxCell id="aJQw6F4n-1IlwYii5Gm_-18" value="produces" style="edgeStyle=orthogonalEdgeStyle;rounded=0;orthogonalLoop=1;jettySize=auto;html=1;entryX=0.5;entryY=0;entryDx=0;entryDy=0;exitX=0;exitY=0.25;exitDx=0;exitDy=0;" edge="1" parent="1" source="aJQw6F4n-1IlwYii5Gm_-15" target="aJQw6F4n-1IlwYii5Gm_-4">
          <mxGeometry relative="1" as="geometry" />
        </mxCell>
        <mxCell id="aJQw6F4n-1IlwYii5Gm_-15" value="Policy&lt;br&gt;(Rules what happened on success or failure, etc.)" style="rounded=0;whiteSpace=wrap;html=1;fillColor=#e1d5e7;strokeColor=#9673a6;" vertex="1" parent="1">
          <mxGeometry x="670" y="90" width="120" height="60" as="geometry" />
        </mxCell>
        <mxCell id="aJQw6F4n-1IlwYii5Gm_-19" value="&lt;h1&gt;Domain events&lt;/h1&gt;&lt;div&gt;What are the events involved?&lt;/div&gt;&lt;div&gt;Written as verbs in the past tense.&lt;/div&gt;" style="text;html=1;strokeColor=#d79b00;fillColor=#ffe6cc;spacing=5;spacingTop=-20;whiteSpace=wrap;overflow=hidden;rounded=0;" vertex="1" parent="1">
          <mxGeometry x="540" y="507" width="190" height="120" as="geometry" />
        </mxCell>
        <mxCell id="aJQw6F4n-1IlwYii5Gm_-20" value="&lt;h1 style=&quot;font-size: 27px;&quot;&gt;&lt;font style=&quot;font-size: 27px;&quot;&gt;Steps&lt;/font&gt;&lt;/h1&gt;&lt;div style=&quot;font-size: 27px;&quot;&gt;&lt;ol style=&quot;&quot;&gt;&lt;li style=&quot;&quot;&gt;&lt;font style=&quot;font-size: 27px;&quot;&gt;Identify the Domain Events&lt;/font&gt;&lt;/li&gt;&lt;li style=&quot;&quot;&gt;&lt;font style=&quot;font-size: 27px;&quot;&gt;Sequence of the Events&lt;/font&gt;&lt;/li&gt;&lt;li style=&quot;&quot;&gt;&lt;font style=&quot;font-size: 27px;&quot;&gt;Identify the Commands&lt;/font&gt;&lt;/li&gt;&lt;li style=&quot;&quot;&gt;&lt;font style=&quot;font-size: 27px;&quot;&gt;Identify the Entities&lt;/font&gt;&lt;/li&gt;&lt;li style=&quot;&quot;&gt;&lt;font style=&quot;font-size: 27px;&quot;&gt;Identify policies&lt;/font&gt;&lt;/li&gt;&lt;li style=&quot;&quot;&gt;&lt;font style=&quot;font-size: 27px;&quot;&gt;Identify artefacts and schemas&lt;/font&gt;&lt;/li&gt;&lt;li style=&quot;&quot;&gt;&lt;font style=&quot;font-size: 27px;&quot;&gt;Aggregate the Events&lt;/font&gt;&lt;/li&gt;&lt;/ol&gt;&lt;/div&gt;" style="text;html=1;strokeColor=default;fillColor=default;spacing=5;spacingTop=-20;whiteSpace=wrap;overflow=hidden;rounded=0;spacingLeft=5;spacingBottom=5;spacingRight=5;" vertex="1" parent="1">
          <mxGeometry x="45" y="507" width="460" height="320" as="geometry" />
        </mxCell>
        <mxCell id="s4aFoN17mqB3vXZR0TVX-3" value="" style="group" vertex="1" connectable="0" parent="1">
          <mxGeometry x="220" y="400" width="550" height="90" as="geometry" />
        </mxCell>
        <mxCell id="s4aFoN17mqB3vXZR0TVX-1" value="&lt;h1 style=&quot;font-size: 20px; line-height: 100%;&quot;&gt;Group the sticky notes using &lt;font color=&quot;#00cc00&quot;&gt;nouns&lt;/font&gt;&amp;nbsp;defining the &quot;thing&quot; they operate on.&lt;/h1&gt;" style="text;html=1;spacing=9;spacingTop=0;whiteSpace=wrap;overflow=hidden;rounded=1;strokeColor=default;fillColor=default;fontSize=20;spacingLeft=90;align=left;verticalAlign=middle;" vertex="1" parent="s4aFoN17mqB3vXZR0TVX-3">
          <mxGeometry width="550" height="90" as="geometry" />
        </mxCell>
        <mxCell id="s4aFoN17mqB3vXZR0TVX-2" value="" style="verticalLabelPosition=bottom;verticalAlign=top;html=1;shape=mxgraph.basic.tick;fillColor=#cdeb8b;strokeColor=#36393d;" vertex="1" parent="s4aFoN17mqB3vXZR0TVX-3">
          <mxGeometry x="10" y="15" width="70" height="60" as="geometry" />
        </mxCell>
      </root>
    </mxGraphModel>
  </diagram>
</mxfile>
